<svg id="Capa_1" enable-background="new 0 0 512 512" height="512" viewBox="0 0 512 512" width="512" xmlns="http://www.w3.org/2000/svg" xmlns:xlink="http://www.w3.org/1999/xlink"><linearGradient id="SVGID_1_" gradientUnits="userSpaceOnUse" x1="256" x2="256" y1="391" y2="121"><stop offset="0" stop-color="#00b59c"/><stop offset="1" stop-color="#9cffac"/></linearGradient><linearGradient id="SVGID_2_" gradientUnits="userSpaceOnUse" x1="256" x2="256" y1="391" y2="121"><stop offset="0" stop-color="#c3ffe8"/><stop offset=".9973" stop-color="#f0fff4"/></linearGradient><g><g><g><path d="m422 121h-332l-90 90v90l90 90h332l90-90v-90z" fill="url(#SVGID_1_)"/></g></g><g><g><path d="m135 241h-30c-8.291 0-15 6.709-15 15s6.709 15 15 15h30c8.291 0 15-6.709 15-15s-6.709-15-15-15zm121-30c8.262 0 15 6.724 15 15 0 8.291 6.709 15 15 15s15-6.709 15-15c0-19.53-12.578-36.024-30-42.237v-17.763c0-8.291-6.709-15-15-15s-15 6.709-15 15v17.763c-17.422 6.213-30 22.707-30 42.237 0 24.814 20.186 45 45 45 8.262 0 15 6.724 15 15s-6.738 15-15 15-15-6.724-15-15c0-8.291-6.709-15-15-15s-15 6.709-15 15c0 19.53 12.578 36.024 30 42.237v17.763c0 8.291 6.709 15 15 15s15-6.709 15-15v-17.763c17.422-6.213 30-22.707 30-42.237 0-24.814-20.186-45-45-45-8.262 0-15-6.724-15-15s6.738-15 15-15zm-241 90h-15v75c0 8.291 6.709 15 15 15h75v-15c0-41.353-33.633-75-75-75zm75-165v-15h-75c-8.291 0-15 6.709-15 15v75h15c41.367 0 75-33.647 75-75zm317 105h-30c-8.291 0-15 6.709-15 15s6.709 15 15 15h30c8.291 0 15-6.709 15-15s-6.709-15-15-15zm90-120h-75v15c0 41.353 33.633 75 75 75h15v-75c0-8.291-6.709-15-15-15zm-75 255v15h75c8.291 0 15-6.709 15-15v-75h-15c-41.367 0-75 33.647-75 75z" fill="url(#SVGID_2_)"/></g></g></g></svg>